<svg xmlns="http://www.w3.org/2000/svg" width="15" height="15" viewBox="0 0 15 15">
  <g id="pencil" transform="translate(-1.25 -1.25)">
    <path id="Line_46" data-name="Line 46" d="M2.564,3.087a.522.522,0,0,1-.37-.153L-.6.143A.523.523,0,0,1-.6-.6a.523.523,0,0,1,.74,0L2.934,2.194a.523.523,0,0,1-.37.893Z" transform="translate(13.163 2)" fill="#72797e"/>
    <path id="Path_6018" data-name="Path 6018" d="M1.773,17.157a.523.523,0,0,1-.5-.661l1.047-3.837a.523.523,0,0,1,.135-.232L10.473,4.4a.523.523,0,0,1,.74,0L14,7.194a.523.523,0,0,1,0,.74L5.98,15.957a.523.523,0,0,1-.232.135L1.911,17.139A.523.523,0,0,1,1.773,17.157Zm1.515-4.089-.769,2.82,2.82-.769,7.555-7.555L10.843,5.513Z" transform="translate(0 -0.907)" fill="#72797e"/>
  </g>
</svg>
