<svg
                    id="master-artboard"
                    viewBox="0 0 70 70"
                    version="1.1"
                    xmlns="http://www.w3.org/2000/svg"
                    width="70px"
                    height="70px"
                    style={{ enableBackground: 'new 0 0 336 235.2' }}
                >
                    <defs>
                        <linearGradient id="gradient-0" gradientUnits="userSpaceOnUse" x1="652" y1="46" x2="652" y2="146">
                            <stop offset="0" style={{ stopColor: '#333333' }} />
                            <stop offset="1" style={{ stopColor: '#000000' }} />
                        </linearGradient>
                        <linearGradient id="gradient-1" gradientUnits="objectBoundingBox" x1="0.5" y1="0" x2="0.5" y2="1">
                            <stop offset="0" style={{ stopColor: '#333333' }} />
                            <stop offset="1" style={{ stopColor: '#000000' }} />
                        </linearGradient>
                        <linearGradient id="gradient-2" gradientUnits="userSpaceOnUse" x1="1157.1500244140625" y1="632.7999877929688" x2="1157.1500244140625" y2="757.9000244140625">
                            <stop offset="0" style={{ stopColor: '#000000' }} />
                            <stop offset="1" style={{ stopColor: '#000000' }} />
                        </linearGradient>
                    </defs>
                    <rect id="ee-background" x="0" y="0" width="70" height="70" style={{ fill: 'white', fillOpacity: 0, pointerEvents: 'none' }} />
                    <g transform="matrix(0.28344666957855225, 0, 0, 0.2834465801715851, -3.343700408935547, -72.15807342529297)">
                        <g transform="matrix(1, 0, 0, 1, 5.684341886080802e-14, 0)">
                            <g>
                                <path
                                    className="st4"
                                    d="M132.3,307.5c40.3,0,73.2,32.8,73.2,73.2s-32.8,73.2-73.2,73.2S59.1,421,59.1,380.7S91.9,307.5,132.3,307.5 M132.3,292.5c-48.7,0-88.2,39.5-88.2,88.2s39.5,88.2,88.2,88.2s88.2-39.5,88.2-88.2S181,292.5,132.3,292.5L132.3,292.5z"
                                    style={{ fill: 'rgb(0, 131, 140)' }}
                                />
                            </g>
                        </g>
                        <g transform="matrix(1, 0, 0, 1, 5.684341886080802e-14, 0)">
                            <path
                                className="st4"
                                d="M128.4,424.6c-2,0-4-0.8-5.5-2.2l-35.8-33.2c-3.3-3.1-3.5-8.2-0.4-11.5c3.1-3.3,8.2-3.5,11.5-0.4l28.5,26.4l38.3-63c2.3-3.8,7.3-5.1,11.2-2.7c3.8,2.3,5.1,7.3,2.7,11.2l-43.4,71.6c-1.3,2.1-3.4,3.5-5.8,3.8C129.2,424.6,128.8,424.6,128.4,424.6z"
                                style={{ fill: 'rgb(0, 131, 140)' }}
                            />
                        </g>
                    </g>
                </svg>