<svg xmlns="http://www.w3.org/2000/svg" width="18.825" height="23" viewBox="0 0 18.825 23">
  <g id="secure-payment" transform="translate(-32.499 0)">
    <path id="Path_406" data-name="Path 406" d="M134.638,131.536a.808.808,0,0,0-.568-.234.8.8,0,0,0-.568.234l-2.811,2.811-.971-.971a.8.8,0,0,0-1.135,1.136l1.538,1.539a.8.8,0,0,0,.567.233h0a.8.8,0,0,0,.568-.233l3.379-3.379A.8.8,0,0,0,134.638,131.536Z" transform="translate(-89.695 -122.868)" fill="#333f48"/>
    <path id="Path_407" data-name="Path 407" d="M51.286,4.74a.417.417,0,0,0-.233-.339L42.094.042a.417.417,0,0,0-.365,0L32.77,4.4a.417.417,0,0,0-.233.339,23.068,23.068,0,0,0,.721,7.088,19,19,0,0,0,2.668,6.008,15.717,15.717,0,0,0,5.793,5.117.418.418,0,0,0,.385,0A15.717,15.717,0,0,0,47.9,17.836a19,19,0,0,0,2.668-6.008A23.069,23.069,0,0,0,51.286,4.74ZM41.911,16.168a5.311,5.311,0,1,1,5.311-5.311A5.317,5.317,0,0,1,41.911,16.168Z" fill="#333f48"/>
  </g>
</svg>
