<svg xmlns="http://www.w3.org/2000/svg" width="15" height="16" viewBox="0 0 15 16">
  <g id="share-2" transform="translate(-2 -1)">
    <path id="Ellipse_33" data-name="Ellipse 33" d="M2-1A2.959,2.959,0,0,1,5,1.909,2.959,2.959,0,0,1,2,4.818,2.959,2.959,0,0,1-1,1.909,2.959,2.959,0,0,1,2-1ZM2,3.364A1.479,1.479,0,0,0,3.5,1.909,1.479,1.479,0,0,0,2,.455,1.479,1.479,0,0,0,.5,1.909,1.479,1.479,0,0,0,2,3.364Z" transform="translate(12 2)" fill="#333f48"/>
    <path id="Ellipse_34" data-name="Ellipse 34" d="M2-1A2.959,2.959,0,0,1,5,1.909,2.959,2.959,0,0,1,2,4.818,2.959,2.959,0,0,1-1,1.909,2.959,2.959,0,0,1,2-1ZM2,3.364A1.479,1.479,0,0,0,3.5,1.909,1.479,1.479,0,0,0,2,.455,1.479,1.479,0,0,0,.5,1.909,1.479,1.479,0,0,0,2,3.364Z" transform="translate(3 7.091)" fill="#333f48"/>
    <path id="Ellipse_35" data-name="Ellipse 35" d="M2-1A2.959,2.959,0,0,1,5,1.909,2.959,2.959,0,0,1,2,4.818,2.959,2.959,0,0,1-1,1.909,2.959,2.959,0,0,1,2-1ZM2,3.364A1.479,1.479,0,0,0,3.5,1.909,1.479,1.479,0,0,0,2,.455,1.479,1.479,0,0,0,.5,1.909,1.479,1.479,0,0,0,2,3.364Z" transform="translate(12 12.182)" fill="#333f48"/>
    <path id="Line_1" data-name="Line 1" d="M4.872,3.349a.764.764,0,0,1-.377-.1L-.628.356A.715.715,0,0,1-.9-.639.763.763,0,0,1,.128-.9L5.25,1.993a.715.715,0,0,1,.27.995A.755.755,0,0,1,4.872,3.349Z" transform="translate(7.193 10.371)" fill="#333f48"/>
    <path id="Line_2" data-name="Line 2" d="M-.249,3.349A.755.755,0,0,1-.9,2.988a.715.715,0,0,1,.27-.995L4.487-.9a.763.763,0,0,1,1.026.262.715.715,0,0,1-.27.995L.128,3.25A.765.765,0,0,1-.249,3.349Z" transform="translate(7.193 5.28)" fill="#333f48"/>
  </g>
</svg>
